<?xml version="1.0" encoding="UTF-8"?>
<svg version="1.1" xmlns="http://www.w3.org/2000/svg" width="299" height="91">
<path d="M0 0 C98.67 0 197.34 0 299 0 C299 30.03 299 60.06 299 91 C200.33 91 101.66 91 0 91 C0 60.97 0 30.94 0 0 Z " fill="#FBFDFE" transform="translate(0,0)"/>
<path d="M0 0 C23.30886076 0 23.30886076 0 28.8984375 4.54296875 C31.67660314 7.6371691 33.38739722 9.87022365 33.5 14.125 C32.65384091 20.68273298 30.8710042 23.50368843 26 28 C25.67 28.33 25.34 28.66 25 29 C22.4672235 29.07320163 19.96896082 29.09227569 17.4375 29.0625 C14.983125 29.041875 12.52875 29.02125 10 29 C10 33.95 10 38.9 10 44 C6.7 44 3.4 44 0 44 C0 29.48 0 14.96 0 0 Z " fill="#0F83E7" transform="translate(2,16)"/>
<path d="M0 0 C2.64 0 5.28 0 8 0 C8 13.86 8 27.72 8 42 C5.69 42 3.38 42 1 42 C1 41.34 1 40.68 1 40 C0.030625 40.66 -0.93875 41.32 -1.9375 42 C-6.25625011 44.42547986 -10.14049957 45.13787598 -15 44 C-18.64536134 41.95288477 -21.47542999 39.79939714 -22.671875 35.6953125 C-24.58708709 19.96321321 -24.58708709 19.96321321 -20 14 C-16.66562988 11.05334733 -14.20883809 9.76023353 -9.8125 9.6875 C-6 10 -6 10 -3 11 C-3 11.66 -3 12.32 -3 13 C-2.01 13 -1.02 13 0 13 C0 8.71 0 4.42 0 0 Z " fill="#1787E8" transform="translate(120,17)"/>
<path d="M0 0 C3.856875 -0.061875 7.71375 -0.12375 11.6875 -0.1875 C13.4986731 -0.22846802 13.4986731 -0.22846802 15.34643555 -0.27026367 C16.308479 -0.27775635 17.27052246 -0.28524902 18.26171875 -0.29296875 C19.24100342 -0.3086792 20.22028809 -0.32438965 21.22924805 -0.34057617 C24.45781652 0.05627404 26.34779173 1.16483275 29 3 C29 2.34 29 1.68 29 1 C31.83387515 -0.41693757 34.28029373 -0.1699013 37.4375 -0.1875 C38.59121094 -0.20167969 39.74492187 -0.21585938 40.93359375 -0.23046875 C44 0 44 0 47 2 C48.09911549 5.29734646 48.1139456 7.72958745 48.09765625 11.19921875 C48.09443359 12.40771484 48.09121094 13.61621094 48.08789062 14.86132812 C48.07532227 16.7552832 48.07532227 16.7552832 48.0625 18.6875 C48.05798828 19.96173828 48.05347656 21.23597656 48.04882812 22.54882812 C48.03702873 25.69926564 48.02056597 28.84960949 48 32 C45.66705225 32.04241723 43.33297433 32.04092937 41 32 C39.35774283 30.35774283 39.81380417 28.42236158 39.75390625 26.16015625 C39.72103516 25.17982422 39.68816406 24.19949219 39.65429688 23.18945312 C39.5932168 21.10883172 39.53591031 19.02809603 39.48242188 16.94726562 C39.44826172 15.96564453 39.41410156 14.98402344 39.37890625 13.97265625 C39.3538501 13.06781494 39.32879395 12.16297363 39.30297852 11.23071289 C39.2018615 8.79819013 39.2018615 8.79819013 37 7 C34.69 7 32.38 7 30 7 C29.67 15.25 29.34 23.5 29 32 C26.03 32 23.06 32 20 32 C19.97494385 31.30849854 19.9498877 30.61699707 19.92407227 29.90454102 C19.80847839 26.79032134 19.68558758 23.67643211 19.5625 20.5625 C19.52318359 19.47388672 19.48386719 18.38527344 19.44335938 17.26367188 C19.40146484 16.22919922 19.35957031 15.19472656 19.31640625 14.12890625 C19.27974854 13.17056885 19.24309082 12.21223145 19.20532227 11.22485352 C19.24165576 9.02861075 19.24165576 9.02861075 18 8 C14.5 7.83333333 14.5 7.83333333 11 8 C9.28556781 9.71443219 9.76947033 12.00445241 9.68359375 14.34765625 C9.64169922 15.42724609 9.59980469 16.50683594 9.55664062 17.61914062 C9.51732422 18.75544922 9.47800781 19.89175781 9.4375 21.0625 C9.39431641 22.20267578 9.35113281 23.34285156 9.30664062 24.51757812 C9.20017161 27.34492195 9.09815793 30.17235738 9 33 C6.03 33 3.06 33 0 33 C0 22.11 0 11.22 0 0 Z " fill="#1B89E8" transform="translate(167,28)"/>
<path d="M0 0 C2.5106727 0.83869455 4.17619685 2.01969271 5.63671875 4.234375 C8.32154257 10.24789441 8.63683187 17.38247314 6.5625 23.60546875 C5.9025 23.60546875 5.2425 23.60546875 4.5625 23.60546875 C4.294375 24.18296875 4.02625 24.76046875 3.75 25.35546875 C0.63865991 31.25063945 0.63865991 31.25063945 -2.23828125 32.19921875 C-7.7297352 33.21362587 -13.30158291 33.6152611 -18.3125 30.85546875 C-25.44969311 25.71668971 -25.44969311 25.71668971 -26.4375 20.60546875 C-27.16762907 14.65353049 -27.28791881 10.00241575 -23.625 5.04296875 C-17.51528757 -2.21325762 -8.78627029 -1.4221367 0 0 Z " fill="#1988E8" transform="translate(85.4375,28.39453125)"/>
<path d="M0 0 C0.99773437 0.02320313 1.99546875 0.04640625 3.0234375 0.0703125 C4.52777344 0.09738281 4.52777344 0.09738281 6.0625 0.125 C6.83335937 0.14820313 7.60421875 0.17140625 8.3984375 0.1953125 C8.03125 2.6171875 8.03125 2.6171875 7.3984375 5.1953125 C6.6971875 5.6078125 5.9959375 6.0203125 5.2734375 6.4453125 C-1.19171864 10.38062493 -5.07615202 17.66677458 -8.6015625 24.1953125 C-9.2615625 25.1853125 -9.9215625 26.1753125 -10.6015625 27.1953125 C-8.16972579 30.25247865 -6.09008829 32.82310237 -2.9765625 35.1953125 C0.95997782 38.51029382 2.17346817 42.29543517 3.3984375 47.1953125 C-0.2315625 47.1953125 -3.8615625 47.1953125 -7.6015625 47.1953125 C-8.1584375 46.1434375 -8.7153125 45.0915625 -9.2890625 44.0078125 C-11.28930293 40.51803133 -13.50805443 37.81289625 -16.6015625 35.1953125 C-17.5915625 35.1953125 -18.5815625 35.1953125 -19.6015625 35.1953125 C-20.0346875 36.0821875 -20.4678125 36.9690625 -20.9140625 37.8828125 C-25.31947424 46.53047258 -25.31947424 46.53047258 -29.6015625 48.1953125 C-32.1796875 48.390625 -32.1796875 48.390625 -34.8515625 48.3203125 C-36.18960938 48.29324219 -36.18960938 48.29324219 -37.5546875 48.265625 C-38.23015625 48.24242187 -38.905625 48.21921875 -39.6015625 48.1953125 C-38.72261468 43.82490619 -36.36414439 40.89141982 -33.6640625 37.4453125 C-33.20837891 36.84332031 -32.75269531 36.24132813 -32.28320312 35.62109375 C-31.10828758 34.10385289 -29.85986843 32.64414395 -28.6015625 31.1953125 C-27.9415625 31.1953125 -27.2815625 31.1953125 -26.6015625 31.1953125 C-25.92355216 28.29458069 -25.92355216 28.29458069 -25.6015625 25.1953125 C-26.2615625 24.5353125 -26.9215625 23.8753125 -27.6015625 23.1953125 C-27.6015625 21.8753125 -27.6015625 20.5553125 -27.6015625 19.1953125 C-28.5915625 18.8653125 -29.5815625 18.5353125 -30.6015625 18.1953125 C-32.6015625 15.1953125 -32.6015625 15.1953125 -32.6015625 12.1953125 C-29.54893672 11.90179079 -26.64378235 11.75319058 -23.6015625 12.1953125 C-21.2265625 14.6328125 -21.2265625 14.6328125 -19.6015625 17.1953125 C-18.6115625 17.5253125 -17.6215625 17.8553125 -16.6015625 18.1953125 C-16.6015625 17.5353125 -16.6015625 16.8753125 -16.6015625 16.1953125 C-15.46870211 15.06245211 -14.33091799 13.93418317 -13.171875 12.828125 C-10.58783847 10.14124124 -8.40175937 7.15122632 -6.15234375 4.18359375 C-3.06901293 0.23040638 -3.06901293 0.23040638 0 0 Z " fill="#1988E8" transform="translate(286.6015625,15.8046875)"/>
<path d="M0 0 C1.2890625 -0.0103125 2.578125 -0.020625 3.90625 -0.03125 C8.89878811 0.70677737 11.17150411 2.8966429 14.3125 6.6875 C15.5 9.5 15.5 9.5 15.5 18.5 C8.24 18.5 0.98 18.5 -6.5 18.5 C-5.51 20.81 -4.52 23.12 -3.5 25.5 C4.06407533 25.70589721 4.06407533 25.70589721 11.5 24.5 C11.83 26.48 12.16 28.46 12.5 30.5 C6.87368017 34.25087989 1.11064695 34.40853132 -5.5 33.5 C-10.19670287 31.83843059 -12.83452884 29.88639825 -15 25.375 C-16.89228598 10.70978363 -16.89228598 10.70978363 -12.5 4.5 C-8.44996846 0.47947688 -5.64567958 -0.04516544 0 0 Z " fill="#1B89E8" transform="translate(148.5,27.5)"/>
<path d="M0 0 C2.97 0 5.94 0 9 0 C10.00347791 3.12392232 11.0029248 6.24903451 12 9.375 C12.28617188 10.26445313 12.57234375 11.15390625 12.8671875 12.0703125 C13.13789063 12.92109375 13.40859375 13.771875 13.6875 14.6484375 C14.06455078 15.82672119 14.06455078 15.82672119 14.44921875 17.02880859 C15 19 15 19 15 21 C15.66 21 16.32 21 17 21 C17.33 18.03 17.66 15.06 18 12 C18.66 12 19.32 12 20 12 C20.12375 10.948125 20.2475 9.89625 20.375 8.8125 C20.91140782 5.54041229 21.63880035 2.99463924 23 0 C25.64 0 28.28 0 31 0 C29.35663483 8.6428835 26.41467085 16.71009536 23.19140625 24.87890625 C22.16490795 27.56799524 21.2753719 30.24830049 20.4375 33 C19.24442908 36.65964449 17.7153323 39.2023849 15 42 C14.443125 42.598125 13.88625 43.19625 13.3125 43.8125 C9.67955962 45.67806398 6.00595407 45.23111273 2 45 C2 42.69 2 40.38 2 38 C4.31 37.01 6.62 36.02 9 35 C9.25517094 30.91726504 9.15160907 27.97513377 7.5625 24.1875 C5.63533855 19.56049445 5.29513147 14.96635021 5 10 C4.34 10 3.68 10 3 10 C0 3.375 0 3.375 0 0 Z " fill="#1485E7" transform="translate(218,28)"/>
<path d="M0 0 C2.64 0 5.28 0 8 0 C8 0.99 8 1.98 8 3 C8.33 2.505 8.66 2.01 9 1.5 C12.17572747 -0.88179561 15.10246066 -0.19168226 19 0 C19 2.64 19 5.28 19 8 C18.36191406 8.12117188 17.72382812 8.24234375 17.06640625 8.3671875 C16.24011719 8.53476562 15.41382813 8.70234375 14.5625 8.875 C13.32693359 9.11863281 13.32693359 9.11863281 12.06640625 9.3671875 C11.38449219 9.57601562 10.70257813 9.78484375 10 10 C8.82530556 12.34938888 8.79965111 13.95073205 8.68359375 16.5703125 C8.64169922 17.46621094 8.59980469 18.36210938 8.55664062 19.28515625 C8.51732422 20.22230469 8.47800781 21.15945312 8.4375 22.125 C8.39431641 23.06988281 8.35113281 24.01476562 8.30664062 24.98828125 C8.20040928 27.32537092 8.09836824 29.6625683 8 32 C5.66705225 32.04241723 3.33297433 32.04092937 1 32 C0 31 0 31 -0.11352539 28.04077148 C-0.10828857 26.74727783 -0.10305176 25.45378418 -0.09765625 24.12109375 C-0.0962413 23.4344313 -0.09482635 22.74776886 -0.09336853 22.04029846 C-0.08775479 19.83932199 -0.07520007 17.63844591 -0.0625 15.4375 C-0.05748676 13.94856917 -0.05292355 12.45963676 -0.04882812 10.97070312 C-0.03778093 7.31376925 -0.02050713 3.65689442 0 0 Z " fill="#1586E7" transform="translate(39,28)"/>
<path d="M0 0 C1.17755859 -0.01160156 1.17755859 -0.01160156 2.37890625 -0.0234375 C3.05824219 0.10804687 3.73757812 0.23953125 4.4375 0.375 C6.75340289 3.84885433 6.70741835 5.33930006 6.6875 9.4375 C6.69265625 10.50097656 6.6978125 11.56445312 6.703125 12.66015625 C6.4375 15.375 6.4375 15.375 4.4375 17.375 C-3.19642857 17.79910714 -3.19642857 17.79910714 -6.5625 16.375 C-7.53097302 13.46958095 -7.75832812 11.40862546 -7.8125 8.375 C-7.83828125 7.50875 -7.8640625 6.6425 -7.890625 5.75 C-7.5625 3.375 -7.5625 3.375 -6.33203125 1.5859375 C-4.08952547 0.05133089 -2.70102978 -0.02669881 0 0 Z " fill="#F1F7FD" transform="translate(75.5625,35.625)"/>
<path d="M0 0 C0.66 0.33 1.32 0.66 2 1 C3.60080054 5.80240162 3.85752995 10.8025795 2 15.5625 C-1.26193611 17.90701658 -4.04759684 17.31368279 -8 17 C-10 16 -10 16 -11 13 C-11.14220279 11.33732126 -11.22020567 9.6684827 -11.25 8 C-11.27578125 7.13375 -11.3015625 6.2675 -11.328125 5.375 C-11 3 -11 3 -9.73828125 1.203125 C-6.6142654 -0.95911518 -3.7074029 -0.23539066 0 0 Z " fill="#F5FAFE" transform="translate(117,36)"/>
<path d="M0 0 C9.06976744 -0.48372093 9.06976744 -0.48372093 13.125 1.625 C15 4 15 4 15.625 7 C15 10 15 10 13.125 12.375 C8.59124722 14.73255145 5.07594388 14.27071701 0 14 C0 9.38 0 4.76 0 0 Z " fill="#F3F9FD" transform="translate(11,24)"/>
<path d="M0 0 C3.63 0 7.26 0 11 0 C11 14.85 11 29.7 11 45 C7.7 45 4.4 45 1 45 C1 44.01 1 43.02 1 42 C0.34 41.67 -0.32 41.34 -1 41 C-0.01 41 0.98 41 2 41 C2 41.66 2 42.32 2 43 C4.31 43 6.62 43 9 43 C9 29.14 9 15.28 9 1 C6.36 1 3.72 1 1 1 C1 5.29 1 9.58 1 14 C0.01 13.67 -0.98 13.34 -2 13 C-1.34 13 -0.68 13 0 13 C0 8.71 0 4.42 0 0 Z " fill="#A3CFF5" transform="translate(119,16)"/>
<path d="M0 0 C21 0 21 0 24 2 C12.615 1.505 12.615 1.505 1 1 C1 14.86 1 28.72 1 43 C3.64 43 6.28 43 9 43 C9 38.05 9 33.1 9 28 C13.29 28 17.58 28 22 28 C22 27.34 22 26.68 22 26 C24.31 25.34 26.62 24.68 29 24 C28 27 28 27 25 29 C22.3886146 29.14269866 19.91622711 29.18772704 17.3125 29.125 C14.899375 29.08375 12.48625 29.0425 10 29 C10 33.95 10 38.9 10 44 C6.7 44 3.4 44 0 44 C0 29.48 0 14.96 0 0 Z " fill="#80BDF2" transform="translate(2,16)"/>
<path d="M0 0 C1.19109375 0.16048828 1.19109375 0.16048828 2.40625 0.32421875 C3.2003125 0.42347656 3.994375 0.52273437 4.8125 0.625 C6.90625 1.01171875 6.90625 1.01171875 8.90625 2.01171875 C9.91121852 5.02662432 10.00960303 7.05353567 9.96875 10.19921875 C9.95972656 11.10027344 9.95070313 12.00132813 9.94140625 12.9296875 C9.92980469 13.61675781 9.91820313 14.30382813 9.90625 15.01171875 C9.24625 15.01171875 8.58625 15.01171875 7.90625 15.01171875 C7.6896875 15.97078125 7.6896875 15.97078125 7.46875 16.94921875 C6.90625 19.01171875 6.90625 19.01171875 5.90625 20.01171875 C4.38696962 20.08351839 2.86457518 20.09563882 1.34375 20.07421875 C0.51746094 20.06519531 -0.30882813 20.05617188 -1.16015625 20.046875 C-2.11728516 20.02947266 -2.11728516 20.02947266 -3.09375 20.01171875 C-3.42375 19.35171875 -3.75375 18.69171875 -4.09375 18.01171875 C-3.13662109 18.02912109 -3.13662109 18.02912109 -2.16015625 18.046875 C-1.33386719 18.05589844 -0.50757812 18.06492187 0.34375 18.07421875 C1.57931641 18.09162109 1.57931641 18.09162109 2.83984375 18.109375 C4.89788938 18.24439223 4.89788938 18.24439223 5.90625 17.01171875 C6.00552286 15.05545945 6.03594729 13.09548966 6.03125 11.13671875 C6.03382812 10.06679688 6.03640625 8.996875 6.0390625 7.89453125 C6.03409318 4.94152706 6.03409318 4.94152706 4.90625 2.01171875 C1.93625 2.01171875 -1.03375 2.01171875 -4.09375 2.01171875 C-2.09375 0.01171875 -2.09375 0.01171875 0 0 Z " fill="#85C0F2" transform="translate(75.09375,33.98828125)"/>
<path d="M0 0 C7.4422658 -0.36601307 7.4422658 -0.36601307 10 1.3125 C11 3 11 3 11 6 C6.71 6 2.42 6 -2 6 C-1.34 4.02 -0.68 2.04 0 0 Z " fill="#E5F2FC" transform="translate(144,34)"/>
<path d="M0 0 C1.588125 -0.061875 3.17625 -0.12375 4.8125 -0.1875 C6.15248047 -0.23970703 6.15248047 -0.23970703 7.51953125 -0.29296875 C10 0 10 0 13 3 C9.37 2.67 5.74 2.34 2 2 C2 5.3 2 8.6 2 12 C5.3 12 8.6 12 12 12 C10 14 10 14 7.6171875 14.1953125 C6.71226563 14.17210937 5.80734375 14.14890625 4.875 14.125 C2.461875 14.063125 2.461875 14.063125 0 14 C0 9.38 0 4.76 0 0 Z " fill="#B8DAF7" transform="translate(11,24)"/>
<path d="M0 0 C7.26 0 14.52 0 22 0 C22 0.66 22 1.32 22 2 C15.4 2 8.8 2 2 2 C2.66 3.32 3.32 4.64 4 6 C6.18541552 6.6993514 6.18541552 6.6993514 8.625 6.75 C9.85089844 6.83507813 9.85089844 6.83507813 11.1015625 6.921875 C11.72804687 6.94765625 12.35453125 6.9734375 13 7 C13 7.33 13 7.66 13 8 C11.3973218 8.10824843 9.79254252 8.18570645 8.1875 8.25 C7.29417969 8.29640625 6.40085938 8.3428125 5.48046875 8.390625 C3 8 3 8 1.17578125 6.234375 C0 4 0 4 0 0 Z " fill="#CBE4F9" transform="translate(142,46)"/>
<path d="M0 0 C0.33 0.66 0.66 1.32 1 2 C-0.98 2.66 -2.96 3.32 -5 4 C-5.33 11.26 -5.66 18.52 -6 26 C-6.66 26 -7.32 26 -8 26 C-8.02908357 22.58335127 -8.04682691 19.1667345 -8.0625 15.75 C-8.07087891 14.78191406 -8.07925781 13.81382813 -8.08789062 12.81640625 C-8.09111328 11.88183594 -8.09433594 10.94726562 -8.09765625 9.984375 C-8.10289307 9.12553711 -8.10812988 8.26669922 -8.11352539 7.38183594 C-8.00390712 5.08197381 -7.76717391 3.17048178 -7 1 C-4.53721199 -0.231394 -2.7204945 -0.07159196 0 0 Z " fill="#C7E2F9" transform="translate(204,34)"/>
<path d="M0 0 C0 3.65351863 -0.88942301 5.06026776 -3 8 C-6.13585467 10.01492416 -8.56480311 10.22197887 -12.25 10.125 C-13.14203125 10.10695313 -14.0340625 10.08890625 -14.953125 10.0703125 C-15.96632812 10.03550781 -15.96632812 10.03550781 -17 10 C-16.6875 8.125 -16.6875 8.125 -16 6 C-15.01 5.34 -14.02 4.68 -13 4 C-13.33 4.99 -13.66 5.98 -14 7 C-9.95244357 7.49283264 -9.95244357 7.49283264 -6 7 C-3.55696597 4.96073101 -1.7722575 2.63153386 0 0 Z " fill="#80BDF2" transform="translate(264,54)"/>
<path d="M0 0 C0.33 0.66 0.66 1.32 1 2 C0.67 2.66 0.34 3.32 0 4 C4.29 4 8.58 4 13 4 C13.33 3.01 13.66 2.02 14 1 C14.33 2.65 14.66 4.3 15 6 C10.05 6 5.1 6 0 6 C-0.33 4.35 -0.66 2.7 -1 1 C-0.67 0.67 -0.34 0.34 0 0 Z " fill="#55A7EE" transform="translate(142,36)"/>
<path d="M0 0 C0.33 0.66 0.66 1.32 1 2 C-0.65 2.33 -2.3 2.66 -4 3 C-4 4.32 -4 5.64 -4 7 C-1.36 7 1.28 7 4 7 C3.67 7.66 3.34 8.32 3 9 C0.03 9 -2.94 9 -6 9 C-6 6.69 -6 4.38 -6 2 C-4.02 1.34 -2.04 0.68 0 0 Z " fill="#68B1F0" transform="translate(226,64)"/>
<path d="M0 0 C3.63 0 7.26 0 11 0 C10.67 1.65 10.34 3.3 10 5 C9.01 5.33 8.02 5.66 7 6 C7 5.34 7 4.68 7 4 C7.66 4 8.32 4 9 4 C9 3.34 9 2.68 9 2 C5.7 2 2.4 2 -1 2 C-0.67 1.34 -0.34 0.68 0 0 Z " fill="#7CBBF2" transform="translate(284,16)"/>
<path d="M0 0 C0 0.99 0 1.98 0 3 C-3.79163027 5.52775351 -6.80874031 5.22443035 -11.1875 5.125 C-11.93708984 5.11597656 -12.68667969 5.10695313 -13.45898438 5.09765625 C-15.30612654 5.07412578 -17.15310412 5.03825561 -19 5 C-19 4.67 -19 4.34 -19 4 C-14.71 4 -10.42 4 -6 4 C-6 3.34 -6 2.68 -6 2 C-4.02 1.34 -2.04 0.68 0 0 Z " fill="#63AEEF" transform="translate(30,40)"/>
<path d="M0 0 C0.66 0 1.32 0 2 0 C0.66958425 9.17286652 0.66958425 9.17286652 -2.125 12.625 C-2.74375 13.07875 -3.3625 13.5325 -4 14 C-3.67 12.02 -3.34 10.04 -3 8 C-2.34 8 -1.68 8 -1 8 C-0.67 5.36 -0.34 2.72 0 0 Z " fill="#5BAAEE" transform="translate(238,54)"/>
<path d="M0 0 C0.33 1.32 0.66 2.64 1 4 C0.34 4 -0.32 4 -1 4 C-1.33 6.97 -1.66 9.94 -2 13 C-2.66 13 -3.32 13 -4 13 C-4.33 11.68 -4.66 10.36 -5 9 C-4.01 9 -3.02 9 -2 9 C-2 7.02 -2 5.04 -2 3 C-1.34 3 -0.68 3 0 3 C0 2.01 0 1.02 0 0 Z " fill="#AED5F7" transform="translate(237,36)"/>
<path d="M0 0 C2 2 2 2 2 5 C2.66 5 3.32 5 4 5 C4.33 7.31 4.66 9.62 5 12 C2.69857565 10.21825212 1.19965609 8.83695835 0.51171875 5.953125 C0.27676898 3.9753389 0.13248542 1.98728128 0 0 Z " fill="#9ACBF5" transform="translate(219,33)"/>
<path d="M0 0 C2.64 0 5.28 0 8 0 C7.67 1.65 7.34 3.3 7 5 C6.67 4.01 6.34 3.02 6 2 C4.02 2 2.04 2 0 2 C0 1.34 0 0.68 0 0 Z " fill="#3496EA" transform="translate(241,28)"/>
</svg>
